<svg id="Layer_1" data-name="Layer 1" xmlns="http://www.w3.org/2000/svg" viewBox="0 0 60.62 59.38"><defs><style>.cls-1{fill:#333;}</style></defs><title>icon_speciality</title><path class="cls-1" d="M40.67,27.12V44A1.57,1.57,0,0,1,39,45.17a2.24,2.24,0,0,1-2-1.67V37.63s0,0,0-.06a3.45,3.45,0,0,0-3.69-3.17,3.21,3.21,0,0,0-3.54,3.08V44a1.46,1.46,0,0,1-1.48,1.15,2.13,2.13,0,0,1-1.64-.34,1.39,1.39,0,0,1-.42-.9v-9.3a6.16,6.16,0,0,0,5.54-6.12V26a.92.92,0,0,0-.27-.65,16.12,16.12,0,0,1,1.06-5l1.54-4.92a.46.46,0,0,0,0-.11A3,3,0,0,0,31.75,12l-.93-.25a1.87,1.87,0,1,0-.19.9l.89.24h0A1.89,1.89,0,0,1,33,14.15a2.91,2.91,0,0,1,.18,1L31.67,20a17.75,17.75,0,0,0-1.1,5.09.92.92,0,0,0-.66.88v2.54a4.31,4.31,0,1,1-8.61,0V26a.92.92,0,0,0-.51-.82A17.44,17.44,0,0,0,19.68,20l-1.52-4.86a2.91,2.91,0,0,1,.18-1,1.89,1.89,0,0,1,1.46-1.24h0l.89-.24a1.87,1.87,0,1,0-.19-.9l-.93.25a3,3,0,0,0-2.35,3.25.46.46,0,0,0,0,.11l1.54,4.94a16.63,16.63,0,0,1,1.05,4.9.92.92,0,0,0-.42.77v2.54a6.16,6.16,0,0,0,4.92,6v9.4a3.22,3.22,0,0,0,1,2.26,3.55,3.55,0,0,0,2.47.85q.29,0,.61,0a3.29,3.29,0,0,0,3.13-2.83s0-.06,0-.08v-6.6c0-.37.2-1.24,1.69-1.24a1.62,1.62,0,0,1,1.85,1.43v6a.93.93,0,0,0,0,.22A4.08,4.08,0,0,0,39,47a3.4,3.4,0,0,0,3.53-2.78.93.93,0,0,0,0-.14v-17"/><path class="cls-1" d="M41.64,28.76a3.65,3.65,0,1,1,3.65-3.65A3.65,3.65,0,0,1,41.64,28.76Zm0-5.59a1.94,1.94,0,1,0,1.94,1.94A1.94,1.94,0,0,0,41.64,23.17Z"/><path class="cls-1" d="M30.31,58.38A28.69,28.69,0,1,1,59,29.69,28.72,28.72,0,0,1,30.31,58.38ZM30.31,4A25.69,25.69,0,1,0,56,29.69,25.72,25.72,0,0,0,30.31,4Z"/></svg>