<?xml version="1.0" encoding="utf-8"?>
<!-- Generator: Adobe Illustrator 21.1.0, SVG Export Plug-In . SVG Version: 6.00 Build 0)  -->
<svg version="1.1" id="Layer_1" xmlns="http://www.w3.org/2000/svg" xmlns:xlink="http://www.w3.org/1999/xlink" x="0px" y="0px"
	 viewBox="0 0 44.5 44.5" style="enable-background:new 0 0 44.5 44.5;" xml:space="preserve">
<style type="text/css">
	.st0{fill:#70A31A;}
</style>
<g>
	<path class="st0" d="M22.8,1.5C11,1.5,1.5,11,1.5,22.7C1.5,34.5,11,44,22.8,44S44,34.5,44,22.7C44,11,34.5,1.5,22.8,1.5z
		 M22.8,41.6c-10.4,0-18.9-8.5-18.9-18.9S12.3,3.8,22.8,3.8s18.9,8.5,18.9,18.9C41.6,33.2,33.2,41.6,22.8,41.6z"/>
	<path class="st0" d="M33.6,13.6H12.2c-1.3,0-2.4,1.1-2.4,2.4v13.6c0,1.3,1.1,2.4,2.4,2.4h21.4c1.3,0,2.4-1.1,2.4-2.4V16
		C36,14.7,34.9,13.6,33.6,13.6z M12.2,15.3h21.4c0.4,0,0.7,0.3,0.7,0.7v7.2H11.5V16C11.5,15.6,11.8,15.3,12.2,15.3z M33.6,30.3H12.2
		c-0.4,0-0.7-0.3-0.7-0.7v-2.7h22.8v2.7C34.3,30,34,30.3,33.6,30.3z"/>
</g>
</svg>
