<?xml version="1.0" encoding="utf-8"?>
<!-- Generator: Adobe Illustrator 21.1.0, SVG Export Plug-In . SVG Version: 6.00 Build 0)  -->
<svg version="1.1" id="Layer_1" xmlns="http://www.w3.org/2000/svg" xmlns:xlink="http://www.w3.org/1999/xlink" x="0px" y="0px"
	 viewBox="0 0 44.5 44.5" style="enable-background:new 0 0 44.5 44.5;" xml:space="preserve">
<style type="text/css">
	.st0{fill:#70A31A;}
</style>
<g>
	<path class="st0" d="M22.2,1C10.5,1,1,10.5,1,22.2C1,34,10.5,43.5,22.2,43.5c11.7,0,21.3-9.5,21.3-21.2c0,0,0,0,0,0
		C43.5,10.5,34,1,22.2,1z M22.2,41.1c-10.4,0-18.9-8.5-18.9-18.9S11.8,3.3,22.2,3.3s18.9,8.5,18.9,18.9
		C41.1,32.7,32.7,41.1,22.2,41.1z"/>
	<path class="st0" d="M21.2,8.6l-2.4,1.7c-0.2-0.4-0.5-0.6-0.9-0.6h-2.6c-0.6,0-1,0.4-1,1v2.9l-4.2,3c-0.4,0.3-0.7,0.8-0.8,1.3
		s0,1.1,0.4,1.5c0.4,0.5,1,0.8,1.6,0.8H13V32c0,0.6,0.4,1,1,1h18c0.6,0,1-0.4,1-1V20.3h1.7c1.1,0,2-0.9,2-2c0-0.6-0.3-1.2-0.8-1.6
		l-11.2-8C23.7,7.9,22.3,7.9,21.2,8.6z M32,18.3c-0.6,0-1,0.4-1,1V31H15V19.2c0-0.6-0.4-1-1-1l-2.7,0l4.6-3.3
		c0.3-0.2,0.4-0.5,0.4-0.8v-2.4h0.6v0.5c0,0.4,0.2,0.7,0.5,0.9c0.3,0.2,0.7,0.1,1-0.1l3.9-2.8c0.3-0.2,0.8-0.3,1.2,0l11.2,8H32z"/>
	<path class="st0" d="M22.2,21v7c0,0.6,0.4,1,1,1h4c0.6,0,1-0.4,1-1v-7c0-0.6-0.4-1-1-1h-4C22.7,20,22.2,20.4,22.2,21z M24.2,22h2v5
		h-2V22z"/>
</g>
</svg>
