<?xml version="1.0" encoding="utf-8"?>
<!-- Generator: Adobe Illustrator 21.1.0, SVG Export Plug-In . SVG Version: 6.00 Build 0)  -->
<svg version="1.1" id="Layer_1" xmlns="http://www.w3.org/2000/svg" xmlns:xlink="http://www.w3.org/1999/xlink" x="0px" y="0px"
	 viewBox="0 0 47.5 44.5" style="enable-background:new 0 0 47.5 44.5;" xml:space="preserve">
<style type="text/css">
	.st0{fill:#70A424;}
</style>
<path class="st0" d="M43.1,27.7c3.1-11.4-3.6-23.1-15-26.2C16.7-1.6,4.9,5.1,1.8,16.5c-3.1,11.4,3.6,23.1,15,26.2
	c5.1,1.4,10.6,0.8,15.4-1.6c3.7,3,9.1,2.4,12.1-1.3C47.3,36.2,46.8,30.7,43.1,27.7z M5.4,30.4c-1.2-2.6-1.8-5.4-1.8-8.2
	C3.4,11.7,11.7,3.1,22.2,2.9s19.1,8.2,19.3,18.7c0,1.7-0.2,3.4-0.6,5c-3.4-1.3-7.2-0.4-9.5,2.4l-0.3-0.1l-1.6-0.6l-1.2-0.4l-1.5-0.7
	l-0.1-0.8l-0.1-0.7l0.1-0.6l0.1-1.1c0.7-0.8,1-1.8,1-2.9l0.2-0.3l0.2-0.5l0.3-0.9l0.1-0.6l0.2-0.7l-0.2-0.6l-0.2-0.6l0.2-0.6v-0.8
	L28.5,15v-1.9l-0.2-0.8l-0.4-0.6l-0.5-0.9L27,10.1l-0.8-0.3l-0.6-0.4l-0.9-0.5l-0.8-0.3h-3L19.8,9l-0.5,0.3l-0.9,0.9l-0.8,0.9
	l-0.5,1.1v0.3l-0.5,0.8l0.1,1l-0.1,0.8l0.1,1.8l-0.3,0.2l-0.2,0.3v0.9l0.3,0.9l0.1,0.8l0.5,0.7l0.4,0.5l0.5,0.2l0.2,2.9L18,25.2
	l-0.3,0.5l-0.2,0.6L17,26.8L15.8,28l-1.4,0.8L13,29.6l-1.9,1l-0.6,0.2l-0.7,0.4l-0.7,0.7c0,0.2,0,0.5,0,0.7
	c4.9,6.1,13.3,8.1,20.5,4.8c0.2,0.7,0.5,1.4,1,2C21.1,43.8,9.8,39.8,5.4,30.4z M37.9,42.3c-4.2,0-7.7-3.4-7.7-7.7
	c0-4.3,3.4-7.7,7.7-7.7c4.3,0,7.7,3.4,7.7,7.7C45.5,38.9,42.1,42.3,37.9,42.3z M39.4,30.2h-3.1v2.9h-2.9v3h2.9v3h3.1v-3h2.9v-3h-2.9
	V30.2z"/>
</svg>
