<?xml version="1.0" encoding="utf-8"?>
<!-- Generator: Adobe Illustrator 21.1.0, SVG Export Plug-In . SVG Version: 6.00 Build 0)  -->
<svg version="1.1" id="Layer_1" xmlns="http://www.w3.org/2000/svg" xmlns:xlink="http://www.w3.org/1999/xlink" x="0px" y="0px"
	 viewBox="0 0 44.5 44.5" style="enable-background:new 0 0 44.5 44.5;" xml:space="preserve">
<style type="text/css">
	.st0{fill:#70A424;}
</style>
<path class="st0" d="M22.2,1C10.5,1,1,10.5,1,22.2C1,34,10.5,43.5,22.2,43.5S43.5,34,43.5,22.3l0,0C43.5,10.5,34,1,22.2,1z
	 M22.2,41.1c-10.4,0-18.9-8.5-18.9-18.9S11.8,3.3,22.2,3.3s18.9,8.5,18.9,18.9C41.1,32.7,32.7,41.1,22.2,41.1z M20.7,13.2l-1.5-1.6
	l-9.1,9.1l-1.5,1.5l1.5,1.6l9.1,9l1.5-1.5l-7.9-8h21.5v-2.2H12.8L20.7,13.2z"/>
</svg>
