<?xml version="1.0" encoding="utf-8"?>
<!-- Generator: Adobe Illustrator 21.1.0, SVG Export Plug-In . SVG Version: 6.00 Build 0)  -->
<svg version="1.1" id="Layer_1" xmlns="http://www.w3.org/2000/svg" xmlns:xlink="http://www.w3.org/1999/xlink" x="0px" y="0px"
	 viewBox="0 0 44.5 44.5" style="enable-background:new 0 0 44.5 44.5;" xml:space="preserve">
<style type="text/css">
	.st0{fill:#70A31A;}
</style>
<path class="st0" d="M22.2,1.5C10.5,1.5,1,11,1,22.7C1,34.5,10.5,44,22.2,44c11.7,0,21.3-9.5,21.3-21.2c0,0,0,0,0,0
	C43.5,11,34,1.5,22.2,1.5z M22.2,41.6c-10.4,0-18.9-8.5-18.9-18.9S11.8,3.8,22.3,3.8s18.9,8.5,18.9,18.9
	C41.1,33.2,32.7,41.6,22.2,41.6z"/>
<path class="st0" d="M35,32.1l-0.5-0.7L33.8,31l-1.3-0.5l-1.9-0.6l-1.5-0.5l-1.2-0.4l-1.5-0.7l-0.1-0.8l-0.1-0.7l0.1-0.5l0.1-1.1
	c0.7-0.8,1-1.8,1-2.9l0.2-0.3l0.2-0.4l0.3-0.9l0.1-0.6l0.2-0.7l-0.2-0.6v-0.6l0.3-0.6v-3.2l-0.4-0.8L27.5,13L27,12.1l-0.4-0.7
	l-0.8-0.3l-0.6-0.4l-0.9-0.5L23.5,10h-2.9l-1.1,0.4L19,10.7l-0.9,0.9l-1,0.9l-0.7,1.1v0.3l-0.3,0.8l0.2,1v0.8l0.2,1.8l-0.2,0.1
	l-0.2,0.3v0.9l0.3,0.9l0.1,0.8L17,22l0.4,0.5l0.5,0.2l0.2,2.9l-0.4,0.8l-0.3,0.4l-0.2,0.5l-0.5,0.5L15.6,29l-1.4,0.8l-1.4,0.9
	L11,31.6l-0.6,0.1l-0.7,0.4l-0.7,0.7c0,0.2,0,0.4,0,0.7c3.2,4,8.1,6.3,13.2,6.3c5.1,0,10-2.3,13.2-6.3v-0.6L35,32.1z"/>
</svg>
