<?xml version="1.0" encoding="utf-8"?>
<!-- Generator: Adobe Illustrator 21.1.0, SVG Export Plug-In . SVG Version: 6.00 Build 0)  -->
<svg version="1.1" id="Layer_1" xmlns="http://www.w3.org/2000/svg" xmlns:xlink="http://www.w3.org/1999/xlink" x="0px" y="0px"
	 viewBox="0 0 44.5 44.5" style="enable-background:new 0 0 44.5 44.5;" xml:space="preserve">
<style type="text/css">
	.st0{fill:#70A424;}
</style>
<path class="st0" d="M21.7,0.5C10,0.5,0.5,10,0.5,21.8C0.5,33.5,10,43,21.8,43C33.5,43,43,33.5,43,21.7C43,10,33.5,0.5,21.7,0.5z
	 M21.7,40.7c-10.4,0-18.9-8.5-18.9-18.9S11.3,2.9,21.7,2.9s18.9,8.5,18.9,18.9S32.2,40.6,21.7,40.7z M23.8,16.3h-3.7v3.6h-3.6v3.7
	h3.6v3.6h3.7v-3.6h3.6v-3.7h-3.6V16.3z M28.7,8.7h-3.2V7.5c0-0.5-0.4-0.9-0.9-0.9h-5.4c-0.5,0-0.9,0.4-0.9,0.9v1.2h-3.2
	c-1.3,0-2.4,1.1-2.4,2.4v21.4c0,1.3,1.1,2.4,2.4,2.4l0,0h13.6c1.3,0,2.4-1.1,2.4-2.4V11.1C31.1,9.8,30,8.7,28.7,8.7z M20.7,7.6H23
	c0.4,0,0.7,0.3,0.7,0.7C23.7,8.7,23.4,9,23,9h-2.3C20.3,9,20,8.7,20,8.3C20.1,7.9,20.4,7.6,20.7,7.6z M29.3,32.6
	c0,0.4-0.3,0.7-0.7,0.7H15.1c-0.4,0-0.7-0.3-0.7-0.7V11.1c0-0.4,0.3-0.7,0.7-0.7h3.2v0.9h-2.1c-0.5,0-0.9,0.4-0.9,0.9v1.6h13.2v-1.6
	c0-0.5-0.4-0.9-0.9-0.9h-2.1v-0.9h3.2c0.4,0,0.7,0.3,0.7,0.7v21.5H29.3z"/>
</svg>
