<?xml version="1.0" encoding="utf-8"?>
<!-- Generator: Adobe Illustrator 22.0.1, SVG Export Plug-In . SVG Version: 6.00 Build 0)  -->
<svg version="1.1" id="Layer_1" xmlns="http://www.w3.org/2000/svg" xmlns:xlink="http://www.w3.org/1999/xlink" x="0px" y="0px"
	 viewBox="0 0 44.5 44.5" style="enable-background:new 0 0 44.5 44.5;" xml:space="preserve">
<style type="text/css">
	.st0{fill:#70A424;}
</style>
<path class="st0" d="M22.2,1C10.5,1,1,10.5,1,22.2C1,34,10.5,43.5,22.2,43.5S43.5,34,43.5,22.3l0,0C43.5,10.5,34,1,22.2,1z
	 M22.2,41.1c-10.4,0-18.9-8.5-18.9-18.9S11.8,3.3,22.2,3.3s18.9,8.5,18.9,18.9C41.1,32.7,32.7,41.1,22.2,41.1z"/>
<rect x="20.8" y="8.5" transform="matrix(0.7596 -0.6504 0.6504 0.7596 -9.4898 19.8399)" class="st0" width="2.6" height="28.5"/>
<rect x="21.1" y="8.5" transform="matrix(0.7372 0.6757 -0.6757 0.7372 21.2538 -9.1464)" class="st0" width="2.6" height="28.5"/>
</svg>
