<?xml version="1.0" encoding="utf-8"?>
<!-- Generator: Adobe Illustrator 21.1.0, SVG Export Plug-In . SVG Version: 6.00 Build 0)  -->
<svg version="1.1" id="Layer_1" xmlns="http://www.w3.org/2000/svg" xmlns:xlink="http://www.w3.org/1999/xlink" x="0px" y="0px"
	 viewBox="0 0 44.5 44.5" style="enable-background:new 0 0 44.5 44.5;" xml:space="preserve">
<style type="text/css">
	.st0{fill:#70A31A;}
</style>
<path class="st0" d="M22.2,1C10.5,1,1,10.5,1,22.2C1,34,10.5,43.5,22.2,43.5c11.7,0,21.3-9.5,21.3-21.2c0,0,0,0,0,0
	C43.5,10.5,34,1,22.2,1z M22.2,41.1c-10.4,0-18.9-8.5-18.9-18.9S11.8,3.3,22.3,3.3s18.9,8.5,18.9,18.9
	C41.1,32.7,32.7,41.1,22.2,41.1z"/>
<path class="st0" d="M25.5,11.7H14.9v22.4h15.9V16.3L25.5,11.7z M25.7,14l2.6,2.3h-2.6V14z M16.6,32.4V13.3H24v4.6h5.2v14.5H16.6z"
	/>
</svg>
