<?xml version="1.0" encoding="utf-8"?>
<!-- Generator: Adobe Illustrator 21.1.0, SVG Export Plug-In . SVG Version: 6.00 Build 0)  -->
<svg version="1.1" id="Layer_1" xmlns="http://www.w3.org/2000/svg" xmlns:xlink="http://www.w3.org/1999/xlink" x="0px" y="0px"
	 viewBox="0 0 44.5 44.5" style="enable-background:new 0 0 44.5 44.5;" xml:space="preserve">
<style type="text/css">
	.st0{fill:#70A31A;}
</style>
<path class="st0" d="M22.2,0.5C10.5,0.5,1,10,1,21.7S10.5,43,22.2,43s21.3-9.5,21.3-21.2c0,0,0,0,0,0C43.5,10,34,0.5,22.2,0.5z
	 M22.2,40.7c-10.4,0-18.9-8.5-18.9-18.9S11.8,2.9,22.3,2.9s18.9,8.5,18.9,18.9C41.1,32.2,32.7,40.6,22.2,40.7z"/>
<path class="st0" d="M31.6,28.3c0,0-3.4-2.6-3.4-10.2l0,0V17c0-3.3-2.7-6-6-6s-6,2.7-6,6v3.4c-0.4,2.3-1.2,5.7-3.4,7.9h6.9v0.5
	c0,1,0.8,1.9,1.9,1.9h1.3c1,0,1.9-0.8,1.9-1.9v-0.5L31.6,28.3z"/>
</svg>
