<?xml version="1.0" encoding="utf-8"?>
<!-- Generator: Adobe Illustrator 21.1.0, SVG Export Plug-In . SVG Version: 6.00 Build 0)  -->
<svg version="1.1" id="Layer_1" xmlns="http://www.w3.org/2000/svg" xmlns:xlink="http://www.w3.org/1999/xlink" x="0px" y="0px"
	 viewBox="0 0 44.5 44.5" style="enable-background:new 0 0 44.5 44.5;" xml:space="preserve">
<style type="text/css">
	.st0{fill:#70A31A;}
</style>
<path class="st0" d="M22.2,1.5C10.5,1.5,1,11,1,22.7C1,34.5,10.5,44,22.2,44c11.7,0,21.3-9.5,21.3-21.2c0,0,0,0,0,0
	C43.5,11,34,1.5,22.2,1.5z M22.2,41.6c-10.4,0-18.9-8.5-18.9-18.9S11.8,3.8,22.3,3.8s18.9,8.5,18.9,18.9
	C41.1,33.2,32.7,41.6,22.2,41.6z"/>
<path class="st0" d="M29.3,28.2c-0.9-0.4-1.3-1.4-1.2-2.3c0-1.6,0-3.3,0-4.9c0-0.5,0.2-1,0.5-1.4c0.2-0.2,0.2-0.6,0.1-0.9
	c-0.8-1.8-2.4-3-4.3-3.3c-2.3-0.6-4.8,0-6.6,1.7c-0.4,0.4-0.7,0.8-0.9,1.2c-0.3,0.5-0.5,1,0,1.5c0.2,0.3,0.4,0.7,0.4,1.1
	c0,1.8,0,3.6,0,5.4c0,1-0.8,1.9-1.8,2.1c-1,0.1-1.9-0.5-2.2-1.4c0-0.1-0.1-0.2-0.1-0.4c-1.1-1.5-1.3-3.4-0.6-5.1
	c0.4-0.8,0.9-1.5,1.4-2.2c0.1-0.1,0.1-0.2,0.2-0.3c0.7-3,3.2-5.3,6.2-5.8c3-0.8,6.2-0.1,8.6,2c1,0.9,1.8,2.1,2.1,3.4
	c0.1,0.3,0.3,0.6,0.5,0.8c0,0,0,0,0.1,0.1c1.4,1.8,2.2,3.8,1.4,5.9c-1,2.7-2.6,5-5.8,5.6c-0.2,0-0.4,0.3-0.5,0.5
	c-0.6,1-1.9,1.3-2.9,0.7c-1-0.6-1.3-1.9-0.7-2.9c0.2-0.3,0.5-0.6,0.8-0.7c0.9-0.5,2.1-0.3,2.8,0.6c0.1,0.3,0.4,0.4,0.7,0.3
	c0,0,0,0,0.1,0c0.7-0.3,1.4-0.7,2-1L29.3,28.2z"/>
</svg>
